<?xml version="1.0" encoding="iso-8859-1"?>
<!-- Uploaded to: SVG Repo, www.svgrepo.com, Generator: SVG Repo Mixer Tools -->
<!DOCTYPE svg PUBLIC "-//W3C//DTD SVG 1.1//EN" "http://www.w3.org/Graphics/SVG/1.1/DTD/svg11.dtd">
<svg fill="#000000" height="800px" width="800px" version="1.1" id="Capa_1" xmlns="http://www.w3.org/2000/svg" xmlns:xlink="http://www.w3.org/1999/xlink" 
	 viewBox="0 0 297 297" xml:space="preserve">
<g>
	<path d="M167.571,31.912c4.394,9.938,7.945,24.049,10.631,42.281h35.624C202.394,53.028,185.916,38.098,167.571,31.912z"/>
	<path d="M201.402,35.26c11.42,9.961,21.251,23.156,28.642,38.933H275.5C256.62,56.167,230.697,42.689,201.402,35.26z"/>
	<path d="M83.175,74.193h35.624c2.686-18.233,6.237-32.343,10.631-42.281C111.084,38.098,94.606,53.028,83.175,74.193z"/>
	<path d="M95.598,35.26C66.303,42.689,40.38,56.167,21.5,74.193h45.456C74.347,58.416,84.179,45.221,95.598,35.26z"/>
	<path d="M158.133,20.205V9.633c0-5.32-4.313-9.633-9.633-9.633s-9.633,4.313-9.633,9.633v10.572
		c3.197-0.142,6.408-0.223,9.633-0.223S154.936,20.064,158.133,20.205z"/>
	<path d="M148.5,28.807c-3.13,1.622-10.185,14.368-15.033,45.387h30.065C158.685,43.175,151.63,30.428,148.5,28.807z"/>
	<path d="M148.5,104.249c10.961,0,19.878-8.917,19.879-19.878h-39.757C128.622,95.331,137.539,104.249,148.5,104.249z"/>
	<path d="M138.867,116.312v171.055c0,5.32,4.313,9.633,9.633,9.633s9.633-4.313,9.633-9.633V116.312
		c-3.052,0.922-6.284,1.423-9.633,1.423S141.919,117.233,138.867,116.312z"/>
	<path d="M95.257,104.249c10.961,0,19.878-8.917,19.879-19.878H75.378C75.378,95.331,84.295,104.249,95.257,104.249z"/>
	<path d="M201.743,104.249c10.961,0,19.878-8.917,19.879-19.878h-39.757C181.865,95.331,190.782,104.249,201.743,104.249z"/>
	<path d="M235.108,84.37c0,10.961,8.917,19.878,19.879,19.878c10.961,0,19.878-8.917,19.879-19.878H235.108z"/>
	<path d="M42.013,104.249c10.961,0,19.878-8.917,19.879-19.878H22.135C22.135,95.331,31.052,104.249,42.013,104.249z"/>
</g>
</svg>